<svg width="22" height="20" viewBox="0 0 22 20" fill="none" xmlns="http://www.w3.org/2000/svg">
<path d="M15.1155 12.3067L15.7337 12.9248C16.3712 13.5624 16.3712 14.596 15.7337 15.2336L12.2706 18.6967C11.633 19.3342 10.5994 19.3342 9.96187 18.6967L8.08904 16.8238C7.47672 16.2115 6.64626 15.8675 5.78029 15.8675H3.19502C2.29342 15.8675 1.5625 15.1366 1.5625 14.235V9.33742C1.5625 8.43582 2.29342 7.7049 3.19502 7.7049H4.27771C5.05108 7.7049 5.796 7.41345 6.36404 6.88864C6.93207 6.36382 7.67699 6.07237 8.45036 6.07237" stroke="black" stroke-width="1.5" stroke-miterlimit="10" stroke-linecap="round" stroke-linejoin="round"/>
<path d="M15.0997 15.8674H19.1937C20.0953 15.8674 20.8262 15.1365 20.8262 14.2349V9.33734C20.8262 8.43573 20.0953 7.70481 19.1937 7.70481H17.2351C16.4585 7.70481 15.7642 7.33243 15.1912 6.80823C14.0835 5.7948 12.3633 5.82423 11.2911 6.89647L8.31968 9.86783C7.68218 10.5054 7.68218 11.539 8.31968 12.1765L8.31972 12.1766C8.95726 12.8141 9.99089 12.8141 10.6284 12.1765L12.807 9.99806" stroke="black" stroke-width="1.5" stroke-miterlimit="10" stroke-linecap="round" stroke-linejoin="round"/>
<path d="M7.84424 1.76548L8.4026 3.29956" stroke="black" stroke-width="1.5" stroke-miterlimit="10" stroke-linecap="round" stroke-linejoin="round"/>
<path d="M14.5444 1.76548L13.9861 3.29956" stroke="black" stroke-width="1.5" stroke-miterlimit="10" stroke-linecap="round" stroke-linejoin="round"/>
<path d="M11.1943 1.17485V2.80737" stroke="black" stroke-width="1.5" stroke-miterlimit="10" stroke-linecap="round" stroke-linejoin="round"/>
</svg>