<svg width="271" height="42" viewBox="0 0 271 42" fill="none" xmlns="http://www.w3.org/2000/svg">
<path d="M5.38336 4.12808V14.1088L0 19.4897V38.1765H26.9294V28.1983L32.3153 22.8149V4.12808H5.38336ZM10.7718 32.7932H5.38336V22.8149H10.7718V32.7932ZM10.7718 9.51145H16.1576V19.4897H10.7718V9.51145ZM21.541 32.7932H16.1576V22.8149H21.541V32.7932ZM26.9294 19.4897H21.541V9.51145H26.9294V19.4897Z" fill="#161616"/>
<path d="M232.643 17.6739C232.359 9.10888 221.443 5.72318 216.322 12.5223C216.304 12.5475 216.322 12.3812 216.322 9.49934H210.78V32.7836H217.078L217.173 18.8957C217.173 12.7087 226.356 12.7087 226.356 18.8957V32.7836H232.653C232.651 17.0315 232.668 17.6739 232.643 17.6739Z" fill="#161616"/>
<path d="M206.465 9.51193H200.17V32.7962H206.465V9.51193Z" fill="#161616"/>
<path d="M152.268 9.50949V11.6281C151.127 10.7187 149.832 10.0234 148.444 9.57499C141.99 7.47404 135.055 11.0008 132.954 17.4523C130.853 23.9063 134.38 30.8414 140.832 32.9424C144.746 34.217 149.039 33.4462 152.266 30.8918V32.7887H157.808V9.50949H152.266H152.268ZM151.44 23.1279C150.334 26.5287 146.681 28.3903 143.278 27.2844C139.877 26.1785 138.015 22.5258 139.121 19.1225C140.227 15.7216 143.88 13.86 147.283 14.9659H147.288C150.686 16.0743 152.543 19.727 151.44 23.1253V23.1279Z" fill="#161616"/>
<path d="M254.368 3.63747V11.0311C253.439 10.4089 252.428 9.92016 251.365 9.57504C244.911 7.47661 237.981 11.0084 235.883 17.4624C233.784 23.9164 237.316 30.8465 243.77 32.9449C247.647 34.2045 251.899 33.4588 255.116 30.9548V32.7913H260.658V0.00238037L254.368 3.63747ZM254.368 23.1279C253.262 26.5287 249.61 28.3904 246.206 27.2845C242.805 26.1786 240.944 22.5258 242.05 19.1225C243.156 15.7217 246.808 13.8601 250.212 14.966H250.217C253.612 16.0769 255.469 19.7271 254.363 23.1254H254.368V23.1279Z" fill="#161616"/>
<path d="M203.319 6.98035C205.246 6.98035 206.808 5.41827 206.808 3.49136C206.808 1.56445 205.246 0.00238037 203.319 0.00238037C201.392 0.00238037 199.83 1.56445 199.83 3.49136C199.83 5.41827 201.392 6.98035 203.319 6.98035Z" fill="#161616"/>
<path d="M167.68 12.666C169.23 10.3283 171.855 8.93521 174.658 8.95788C179.475 8.95788 181.599 13.1321 181.599 13.1321C183.022 10.5475 185.748 8.94781 188.697 8.97048C193.179 8.96292 196.817 12.5905 196.824 17.072C196.824 17.077 196.824 17.0795 196.824 17.0846V32.7938H190.526V18.2157C190.526 16.0341 188.753 14.2682 186.571 14.2707C184.392 14.2707 182.626 16.0391 182.626 18.2157V32.7938H176.339V18.2157C176.283 16.0341 174.469 14.3085 172.288 14.3639C170.184 14.4168 168.489 16.1097 168.436 18.2157V32.7938H162.138V9.50957H167.68V12.666Z" fill="#161616"/>
<path d="M47.4678 12.6735C49.0171 10.3358 51.642 8.94272 54.4458 8.96539C59.2624 8.96539 61.386 13.1396 61.386 13.1396C62.8093 10.555 65.535 8.95532 68.4848 8.97799C72.9664 8.97043 76.604 12.598 76.6115 17.0795C76.6115 17.0845 76.6115 17.087 76.6115 17.0921V32.8013H70.3137V18.2232C70.3137 16.0416 68.5453 14.2732 66.3638 14.2732C64.1822 14.2732 62.4138 16.0416 62.4138 18.2232V32.8013H56.116V18.2232C56.116 16.0416 54.3475 14.2732 52.166 14.2732C49.9844 14.2732 48.216 16.0416 48.216 18.2232V32.8013H41.9182V9.51708H47.4603L47.4678 12.6735Z" fill="#161616"/>
<path d="M106.247 33.5469C106.75 34.8946 109.736 41.923 117.416 41.923C125.913 41.923 129.722 34.5672 129.722 30.587C129.722 26.6067 129.763 9.51199 129.763 9.51199H124.238V11.6986C122.152 9.92512 119.497 8.95778 116.759 8.97037C110.335 8.87465 105.05 14.0061 104.957 20.4324C104.861 26.8561 109.992 32.1413 116.419 32.2345C116.532 32.2345 116.648 32.2345 116.761 32.2345C121.187 32.2345 123.649 29.8892 123.649 29.8892C123.674 30.1159 123.686 30.3426 123.686 30.5718C123.712 31.1764 123.634 31.7835 123.45 32.3604C122.883 34.1238 121.011 36.5799 117.726 36.5799C114.938 36.5799 113.071 34.28 112.547 33.557L106.249 33.5469H106.247ZM117.724 26.5967C114.414 26.5967 111.728 23.9113 111.728 20.6012C111.728 17.291 114.414 14.6056 117.724 14.6056C121.034 14.6056 123.719 17.291 123.719 20.6012C123.719 23.9138 121.036 26.5967 117.726 26.5967H117.724Z" fill="#161616"/>
<path d="M90.8753 8.97064C84.2954 8.97064 78.9624 14.3061 78.9649 20.8861C78.9649 27.466 84.3004 32.799 90.8804 32.7965C95.9715 32.7965 100.501 29.5594 102.151 24.7403H95.8254C94.0167 27.4106 90.3841 28.1084 87.7163 26.2972C86.4568 25.4432 85.5801 24.1332 85.2728 22.6444V22.6142H102.655C103.609 16.1023 99.1053 10.0513 92.5934 9.0966C92.024 9.01347 91.4522 8.97064 90.8778 8.97064H90.8753ZM85.3987 18.2989C85.3987 18.2989 86.5978 14.1449 90.9887 14.1449C95.3795 14.1449 96.5786 18.2989 96.5786 18.2989H85.3987Z" fill="#161616"/>
<path d="M270.788 3.48395C270.788 5.42619 269.244 6.98553 267.304 6.98553C265.364 6.98553 263.802 5.40604 263.802 3.48395C263.802 1.56186 265.362 0 267.304 0C269.246 0 270.788 1.54422 270.788 3.48395ZM270.136 3.48395C270.136 1.92209 268.868 0.672607 267.307 0.672607C265.745 0.672607 264.46 1.92209 264.46 3.48395C264.46 5.0458 265.727 6.31292 267.307 6.31292C268.886 6.31292 270.136 5.06092 270.136 3.48395ZM268.047 3.87189L268.861 5.25489H268.153L267.397 3.94747H266.772V5.25489H266.1V1.64247H267.581C268.266 1.64247 268.775 2.14629 268.775 2.82897C268.775 3.34539 268.485 3.72074 268.05 3.87189H268.047ZM266.772 3.34288H267.531C267.888 3.34288 268.12 3.13379 268.12 2.81134C268.12 2.48889 267.891 2.26469 267.531 2.26469H266.772V3.34288Z" fill="#161616"/>
</svg>
